<svg width="71" height="19" viewBox="0 0 71 19" fill="none" xmlns="http://www.w3.org/2000/svg">
<path d="M6.76 18.954C2.886 18.954 0 16.146 0 12.22C0 8.554 2.626 5.564 6.448 5.564C10.296 5.564 12.688 8.346 12.688 11.908V12.948H2.496C2.782 15.132 4.446 16.666 6.734 16.666C8.294 16.666 9.698 15.99 10.452 14.586L12.428 15.6C11.31 17.784 9.256 18.954 6.76 18.954ZM2.6 11.284H10.114C10.01 9.256 8.528 7.878 6.422 7.878C4.264 7.878 2.86 9.386 2.6 11.284Z" fill="white"/>
<path d="M17.5551 3.406C16.6191 3.406 15.8651 2.652 15.8651 1.716C15.8651 0.780001 16.6191 0 17.5551 0C18.4911 0 19.2191 0.780001 19.2191 1.716C19.2191 2.652 18.4911 3.406 17.5551 3.406ZM16.2811 5.928H18.8551V18.668H16.2811V5.928Z" fill="white"/>
<path d="M23.4412 0.0780005H26.0152V18.668H23.4412V0.0780005Z" fill="white"/>
<path d="M36.1623 18.954C32.2883 18.954 29.4023 16.146 29.4023 12.22C29.4023 8.554 32.0283 5.564 35.8503 5.564C39.6983 5.564 42.0903 8.346 42.0903 11.908V12.948H31.8983C32.1843 15.132 33.8483 16.666 36.1363 16.666C37.6963 16.666 39.1003 15.99 39.8543 14.586L41.8303 15.6C40.7123 17.784 38.6583 18.954 36.1623 18.954ZM32.0023 11.284H39.5163C39.4123 9.256 37.9303 7.878 35.8243 7.878C33.6663 7.878 32.2623 9.386 32.0023 11.284Z" fill="white"/>
<path d="M47.7374 18.668H45.1634V11.076C45.1634 7.982 46.9314 5.668 50.2594 5.668C51.0654 5.668 51.8974 5.824 52.5474 6.136V8.684C51.9234 8.32 51.1954 8.138 50.4934 8.138C48.7774 8.138 47.7374 9.308 47.7374 11.18V18.668Z" fill="white"/>
<path d="M59.134 18.954C56.768 18.954 54.948 18.018 53.96 16.12L55.936 15.028C56.586 16.302 57.626 16.77 59.03 16.77C60.486 16.77 61.604 16.172 61.604 15.054C61.604 12.376 54.298 14.404 54.298 9.542C54.298 7.306 56.274 5.668 59.056 5.668C61.422 5.668 63.034 6.76 63.84 8.242L61.864 9.36C61.318 8.242 60.278 7.852 59.108 7.852C57.912 7.852 56.872 8.476 56.872 9.49C56.872 12.09 64.178 10.192 64.178 15.002C64.178 17.42 61.838 18.954 59.134 18.954Z" fill="white"/>
<path d="M69.2027 18.902C68.2667 18.902 67.5127 18.148 67.5127 17.212C67.5127 16.276 68.2667 15.548 69.2027 15.548C70.1387 15.548 70.8927 16.276 70.8927 17.212C70.8927 18.148 70.1387 18.902 69.2027 18.902Z" fill="white"/>
</svg>
